<svg id="Layer_1" data-name="Layer 1" xmlns="http://www.w3.org/2000/svg" viewBox="0 0 115.99 122.88"><title>dialog</title><path d="M17.4,0H76.75a17.45,17.45,0,0,1,17.4,17.4V55.68a17.45,17.45,0,0,1-17.4,17.4H47.16l-26,22.36a3.12,3.12,0,0,1-4.39-.35A3.06,3.06,0,0,1,16,92.86l1.36-19.78A17.45,17.45,0,0,1,0,55.68V17.4A17.45,17.45,0,0,1,17.4,0ZM66.62,31.14a6,6,0,1,1-6,6,6,6,0,0,1,6-6Zm-19.55,0a6,6,0,1,1-6,6,6,6,0,0,1,6-6Zm-19.54,0a6,6,0,1,1-6,6,6,6,0,0,1,6-6Zm74.81-3A16.87,16.87,0,0,1,116,44.67V83A16.87,16.87,0,0,1,99.18,99.77h-.61l1.41,20.4h0a2.57,2.57,0,0,1-.6,1.82,2.54,2.54,0,0,1-3.58.28L69.63,99.11H35.17l17-17.26h36a14.32,14.32,0,0,0,14.27-14.27V29.29c0-.38,0-.76,0-1.13ZM76.75,6.25H17.4A11.18,11.18,0,0,0,6.25,17.4V55.68A11.18,11.18,0,0,0,17.4,66.83h3.53a3.13,3.13,0,0,1,2.91,3.32L22.75,85.84l21.06-18.1a3.14,3.14,0,0,1,2.2-.91H76.75A11.2,11.2,0,0,0,87.9,55.68V17.4A11.2,11.2,0,0,0,76.75,6.25Z"/></svg>